<?xml version="1.0" standalone="no"?>
<!DOCTYPE svg PUBLIC "-//W3C//DTD SVG 20010904//EN"
 "http://www.w3.org/TR/2001/REC-SVG-20010904/DTD/svg10.dtd">
<svg version="1.0" xmlns="http://www.w3.org/2000/svg"
 width="16.000000pt" height="16.000000pt" viewBox="0 0 16.000000 16.000000"
 preserveAspectRatio="xMidYMid meet">
<metadata>
Created by potrace 1.11, written by Peter Selinger 2001-2013
</metadata>
<g transform="translate(0.000000,16.000000) scale(0.004000,-0.004000)"
fill="#000000" stroke="none">
<path d="M3313 3783 c4 -3 0 -11 -8 -17 -8 -6 -41 -101 -73 -211 l-58 -199
-39 -3 c-21 -1 -44 -8 -50 -15 -7 -7 -78 -184 -158 -393 -202 -522 -221 -567
-246 -577 -15 -5 -21 -16 -21 -37 0 -16 4 -31 9 -33 7 -2 -87 -267 -119 -333
-17 -36 -180 -478 -180 -489 0 -6 14 -12 32 -13 17 -1 46 -7 64 -13 29 -10 33
-15 28 -36 -7 -28 10 -33 25 -7 16 28 46 4 48 -38 0 -19 2 -41 4 -49 1 -8 1
-24 1 -34 -2 -18 -4 -18 -29 6 -44 40 -72 52 -79 33 -8 -20 5 -34 15 -16 6 10
13 10 28 2 15 -8 22 -24 26 -67 6 -58 0 -83 -18 -82 -21 0 -49 -55 -119 -243
-40 -107 -88 -230 -106 -273 l-34 -79 -25 30 c-17 19 -40 33 -63 37 l-37 7 24
62 c133 352 205 542 205 544 0 2 -8 3 -19 3 -15 0 -40 -57 -137 -315 l-119
-316 -42 -25 c-69 -40 -92 -80 -138 -237 -9 -31 -14 -65 -10 -75 6 -12 11 -4
20 33 8 33 13 41 14 25 1 -20 3 -22 11 -10 8 13 10 12 11 -5 1 -11 1 -28 1
-38 -1 -12 2 -16 11 -11 8 5 8 2 -2 -9 -16 -20 -25 -22 -16 -4 4 6 -2 1 -13
-12 -19 -23 -20 -23 -30 -5 -7 11 -12 13 -12 6 0 -7 -4 -10 -10 -7 -5 3 -7 0
-4 -8 3 -9 -13 -30 -43 -56 -39 -33 -44 -41 -27 -41 31 0 126 35 197 72 75 39
211 170 233 225 16 39 61 93 76 93 17 0 118 110 139 152 40 78 60 96 138 129
101 42 255 119 338 170 188 115 403 310 517 468 76 106 63 127 -19 29 -33 -39
-69 -76 -80 -82 -11 -6 -59 -48 -106 -93 -152 -143 -324 -260 -524 -354 -99
-47 -135 -58 -135 -41 1 16 85 169 100 182 3 3 16 30 29 60 13 30 27 60 31 65
28 36 230 425 230 443 0 6 3 12 8 14 9 4 182 356 235 478 8 19 29 64 45 100
65 144 94 277 66 305 -8 8 -19 15 -23 15 -7 0 -111 -108 -111 -116 0 -2 -16
-26 -36 -53 -22 -32 -40 -48 -49 -44 -10 3 -19 -5 -25 -23 l-11 -28 -18 31
c-21 34 -67 73 -87 73 -32 0 -30 7 125 513 232 757 252 827 241 847 -6 11 -14
20 -17 20 -3 0 -3 -3 0 -7z m-538 -1360 c-14 -37 -35 -79 -46 -93 -15 -20 -12
-7 12 60 17 47 35 91 41 98 22 26 19 1 -7 -65z m236 -135 c60 -61 43 -122 -65
-228 -31 -30 -56 -60 -56 -66 0 -6 -7 -17 -15 -24 -12 -10 -13 -15 -4 -21 9
-5 6 -15 -8 -35 -11 -16 -27 -42 -35 -59 -8 -16 -35 -66 -60 -111 -24 -44 -53
-99 -64 -122 -10 -23 -23 -42 -28 -42 -4 0 -6 6 -3 13 6 15 143 451 193 612
20 66 38 123 40 127 8 12 77 -17 105 -44z m-868 -1707 c-3 -13 -20 -23 -49
-30 -28 -7 -50 -20 -60 -36 -19 -29 -39 -28 -40 1 -1 40 60 84 118 84 31 0 35
-3 31 -19z m-137 -207 c10 -8 13 -12 5 -8 -8 4 -28 7 -45 6 -22 -1 -26 2 -16
8 21 14 33 12 56 -6z"/>
<path d="M1590 3343 c-19 -3 -43 -13 -53 -24 -10 -10 -27 -19 -39 -19 -28 0
-82 -35 -102 -65 -19 -29 -20 -58 -5 -88 9 -16 9 -22 0 -25 -6 -2 -11 -10 -11
-18 0 -17 30 -19 30 -1 0 6 5 4 11 -6 8 -13 7 -22 -1 -32 -7 -8 -7 -15 -1 -19
11 -7 9 -45 -3 -64 -4 -7 14 -1 40 13 44 23 49 24 71 10 25 -17 32 -9 8 9 -12
9 -6 10 30 8 25 -2 45 -7 45 -11 0 -10 51 -33 58 -26 3 3 3 5 0 5 -4 0 6 14
20 30 15 17 31 30 37 30 6 0 26 11 45 25 19 14 44 25 57 25 22 0 23 3 17 45
-5 37 -3 45 10 45 9 0 16 8 15 18 0 10 -3 12 -6 5 -2 -7 -9 -13 -14 -13 -6 0
-5 9 2 21 6 12 7 19 1 15 -5 -3 -13 1 -16 10 -4 10 -2 13 7 8 6 -4 -5 10 -25
31 -28 30 -44 38 -69 37 -18 0 -48 6 -67 14 -19 8 -40 13 -46 12 -6 0 -27 -3
-46 -5z m81 -14 c11 -5 17 -14 14 -19 -5 -9 -39 -6 -95 7 -23 6 -23 7 10 13
19 4 39 8 43 9 5 0 17 -4 28 -10z m-223 -76 c-9 -10 -23 -31 -31 -48 l-16 -30
-1 27 c0 17 9 34 26 47 33 26 42 27 22 4z m181 -42 c9 -6 0 -14 -33 -26 -53
-21 -62 -18 -40 13 16 23 48 28 73 13z m-159 -126 l25 -30 -27 24 c-16 14 -28
29 -28 34 0 6 1 8 3 6 1 -2 13 -17 27 -34z"/>
<path d="M1356 3225 c-3 -8 -1 -15 4 -15 6 0 10 7 10 15 0 8 -2 15 -4 15 -2 0
-6 -7 -10 -15z"/>
<path d="M2000 3170 c0 -5 5 -10 11 -10 5 0 7 5 4 10 -3 6 -8 10 -11 10 -2 0
-4 -4 -4 -10z"/>
<path d="M1355 3150 c3 -5 10 -10 16 -10 5 0 9 5 9 10 0 6 -7 10 -16 10 -8 0
-12 -4 -9 -10z"/>
<path d="M2945 3104 c-11 -20 -45 -60 -77 -89 -37 -32 -58 -60 -58 -73 0 -12
4 -22 8 -22 16 0 111 107 132 148 27 55 23 88 -5 36z"/>
<path d="M1284 3085 c-9 -23 13 -43 40 -38 24 5 28 17 13 41 -11 17 -46 15
-53 -3z m20 -10 c-4 -8 -8 -15 -10 -15 -2 0 -4 7 -4 15 0 8 4 15 10 15 5 0 7
-7 4 -15z"/>
<path d="M1900 3090 c8 -5 20 -10 25 -10 6 0 3 5 -5 10 -8 5 -19 10 -25 10 -5
0 -3 -5 5 -10z"/>
<path d="M860 2942 c0 -12 -5 -24 -10 -27 -6 -4 -8 -10 -5 -15 7 -11 -15 -26
-47 -32 -18 -3 -29 0 -32 9 -3 8 -10 11 -16 8 -6 -4 -7 -11 -4 -17 5 -7 -2 -9
-20 -6 -15 3 -24 3 -22 0 3 -2 -3 -12 -13 -21 -32 -28 -43 -78 -25 -113 15
-28 15 -30 0 -25 -9 4 -16 2 -16 -3 0 -6 10 -10 23 -10 17 0 25 -8 32 -32 l10
-33 75 3 c46 1 90 -3 114 -12 33 -11 42 -11 53 -1 7 8 13 18 13 23 0 5 12 17
26 27 20 13 28 14 34 5 5 -9 9 -9 14 -1 4 6 2 11 -5 11 -16 0 -3 13 19 18 9 3
41 4 69 4 l53 0 -31 29 c-17 16 -28 33 -24 39 3 5 -1 13 -9 16 -9 3 -16 12
-16 20 0 7 6 11 14 8 19 -7 31 15 17 29 -9 9 -14 8 -21 -3 -7 -11 -10 -4 -10
26 0 61 -34 89 -108 88 -31 0 -66 -2 -77 -4 -11 -1 -28 1 -37 5 -14 5 -18 2
-18 -13z m212 -22 c10 -12 18 -29 18 -38 0 -12 -7 -9 -27 10 -16 15 -44 33
-63 42 l-35 16 45 -4 c30 -3 51 -12 62 -26z m-120 -92 c25 -25 24 -25 -55 -31
-56 -4 -57 -3 -40 16 17 18 47 35 66 36 4 1 17 -9 29 -21z m112 -73 c-9 -20
-25 -40 -35 -46 -16 -8 -15 -4 5 26 14 20 28 50 32 68 7 27 9 28 12 10 2 -12
-4 -38 -14 -58z"/>
<path d="M1080 2948 c0 -4 7 -8 15 -8 8 0 15 4 15 8 0 5 -7 9 -15 9 -8 0 -15
-4 -15 -9z"/>
<path d="M2703 2911 c-32 -21 -69 -51 -81 -66 -28 -35 -45 -100 -37 -134 l7
-26 14 33 c23 56 53 91 115 133 50 33 59 44 59 69 0 17 -4 30 -8 30 -5 0 -36
-17 -69 -39z"/>
<path d="M1120 2890 c-9 -6 -10 -10 -3 -10 6 0 15 5 18 10 8 12 4 12 -15 0z"/>
<path d="M1186 2858 c-7 -22 -3 -48 6 -48 22 0 48 22 48 40 0 15 -7 20 -25 20
-14 0 -27 -6 -29 -12z m44 -8 c0 -5 -2 -10 -4 -10 -3 0 -8 5 -11 10 -3 6 -1
10 4 10 6 0 11 -4 11 -10z"/>
<path d="M3378 2797 c-19 -17 -88 -104 -88 -112 0 -4 -15 -30 -33 -58 -59 -92
-69 -109 -64 -113 7 -8 107 106 164 188 30 43 59 78 63 78 5 0 25 -9 44 -21
30 -18 36 -19 36 -5 0 28 -99 63 -122 43z"/>
<path d="M666 2574 c-5 -14 -4 -15 9 -4 17 14 19 20 6 20 -5 0 -12 -7 -15 -16z"/>
<path d="M2499 2235 c-32 -42 -43 -66 -46 -103 l-4 -47 20 43 c11 23 44 65 73
93 42 40 49 52 38 59 -27 17 -39 11 -81 -45z"/>
<path d="M3686 2057 c-10 -50 -20 -107 -22 -125 -5 -38 -42 -139 -73 -200 -24
-46 -25 -52 -12 -52 14 0 68 136 95 240 22 82 45 230 35 230 -2 0 -12 -42 -23
-93z"/>
<path d="M125 1870 c9 -208 71 -390 198 -580 71 -107 241 -272 363 -353 249
-165 566 -269 865 -284 l126 -6 -5 32 c-4 30 -6 31 -51 31 -62 0 -239 25 -326
44 -119 28 -239 67 -227 75 7 4 -10 15 -41 25 -126 45 -364 177 -446 250 -13
11 -20 14 -16 6 7 -12 4 -12 -15 2 -14 9 -24 22 -22 28 1 6 -2 9 -7 5 -26 -15
-194 179 -248 287 -66 131 -125 322 -143 464 -9 67 -9 66 -5 -26z"/>
<path d="M868 1803 c7 -3 16 -2 19 1 4 3 -2 6 -13 5 -11 0 -14 -3 -6 -6z"/>
<path d="M683 1778 c-36 -26 -62 -61 -38 -52 11 5 13 2 9 -10 -5 -14 0 -13 30
5 51 30 54 19 7 -19 -44 -35 -67 -88 -56 -130 l6 -26 -22 19 c-13 12 -7 -2 15
-32 21 -29 33 -53 27 -53 -20 0 -12 -39 10 -51 16 -8 28 -8 45 0 28 12 23 34
-11 49 -25 11 -63 72 -46 72 6 0 14 -6 18 -14 13 -23 76 -56 106 -56 16 0 37
5 48 10 15 8 19 7 19 -4 0 -8 -12 -19 -27 -24 -25 -9 -21 -11 30 -11 31 -1 57
3 57 7 0 5 19 17 41 28 23 10 60 33 83 51 22 18 49 33 59 33 19 0 23 25 6 36
-6 3 -9 19 -7 35 3 16 0 29 -5 29 -5 0 -4 6 2 14 14 17 -10 68 -44 90 -29 19
-86 21 -103 4 -9 -9 -12 -9 -12 1 0 7 -5 9 -11 5 -8 -4 -8 -9 0 -17 18 -18 13
-29 -8 -17 -27 14 -31 13 -31 -10 0 -32 -31 -60 -66 -60 -40 0 -62 25 -66 75
-4 48 -21 54 -65 23z m212 -116 l40 -8 -48 -13 c-27 -8 -64 -29 -83 -46 -37
-36 -49 -31 -39 15 13 58 39 68 130 52z"/>
<path d="M1161 1773 c-1 -14 5 -23 14 -23 8 0 15 7 15 16 0 8 -4 13 -9 10 -5
-4 -12 0 -14 6 -3 7 -6 3 -6 -9z"/>
<path d="M591 1614 c0 -11 3 -14 6 -6 3 7 2 16 -1 19 -3 4 -6 -2 -5 -13z"/>
<path d="M605 1510 c3 -5 10 -10 16 -10 5 0 9 5 9 10 0 6 -7 10 -16 10 -8 0
-12 -4 -9 -10z"/>
<path d="M1485 1360 c-11 -5 -36 -9 -55 -9 -30 -1 -37 -6 -46 -29 -8 -21 -20
-31 -44 -36 -68 -13 -140 -91 -140 -150 0 -17 12 -47 27 -69 24 -35 28 -37 39
-22 17 24 64 12 64 -15 0 -22 30 -44 75 -55 21 -6 25 -9 12 -12 -9 -3 -34 1
-55 8 -49 18 -80 18 -94 1 -9 -10 -8 -16 2 -22 7 -4 11 -17 8 -28 -3 -11 -2
-26 3 -33 4 -8 1 -18 -9 -25 -9 -7 -14 -15 -11 -18 3 -3 20 8 39 25 35 33 77
54 99 50 7 -1 10 2 7 7 -9 15 107 10 122 -5 8 -7 17 -11 22 -8 5 3 11 1 15 -5
9 -15 25 -12 25 4 0 8 7 17 16 20 13 5 14 9 4 21 -10 12 -9 15 4 15 10 0 15 4
11 9 -3 5 5 13 17 16 13 4 46 25 74 46 28 22 58 39 67 39 18 0 19 1 21 43 1
15 -3 27 -9 27 -20 0 -15 42 6 47 19 5 26 37 10 47 -5 4 -7 -3 -4 -14 9 -35
-12 -21 -23 15 -10 31 -9 34 5 23 9 -7 5 0 -9 15 -30 34 -83 68 -107 69 -10 1
-34 -2 -53 -6 -24 -5 -30 -4 -21 2 11 8 8 10 -10 10 -13 -1 -37 2 -54 5 -16 4
-39 2 -50 -3z m59 -10 c14 -5 26 -16 26 -23 0 -11 -15 -13 -72 -9 -77 5 -118
21 -57 23 18 0 43 4 54 9 11 5 21 9 22 9 1 1 13 -3 27 -9z m-274 -147 c-17
-26 -30 -60 -30 -75 0 -32 -16 -38 -25 -9 -10 32 5 69 41 101 19 16 37 30 39
30 3 0 -9 -21 -25 -47z m250 -12 c24 -7 23 -9 -22 -30 -26 -13 -52 -29 -59
-37 -19 -23 -30 -16 -27 18 4 48 47 67 108 49z"/>
<path d="M1628 1363 c7 -3 16 -2 19 1 4 3 -2 6 -13 5 -11 0 -14 -3 -6 -6z"/>
<path d="M2356 1334 c-3 -9 -3 -21 1 -27 4 -7 6 -20 5 -29 -4 -25 25 -23 38 2
7 14 7 20 0 20 -5 0 -10 11 -10 25 0 28 -24 34 -34 9z"/>
<path d="M1998 1193 c7 -3 16 -2 19 1 4 3 -2 6 -13 5 -11 0 -14 -3 -6 -6z"/>
<path d="M1160 1165 c-10 -12 -10 -15 4 -15 9 0 16 7 16 15 0 8 -2 15 -4 15
-2 0 -9 -7 -16 -15z"/>
<path d="M1168 1073 c7 -3 16 -2 19 1 4 3 -2 6 -13 5 -11 0 -14 -3 -6 -6z"/>
<path d="M1898 1073 c7 -3 16 -2 19 1 4 3 -2 6 -13 5 -11 0 -14 -3 -6 -6z"/>
<path d="M1210 1015 c0 -8 7 -15 15 -15 8 0 15 7 15 15 0 8 -7 15 -15 15 -8 0
-15 -7 -15 -15z"/>
<path d="M1092 988 c-29 -29 1 -63 48 -53 21 5 30 12 28 23 -6 38 -51 55 -76
30z m21 -18 c-3 -12 -8 -19 -11 -16 -5 6 5 36 12 36 2 0 2 -9 -1 -20z"/>
<path d="M1425 910 c-3 -5 1 -10 10 -10 9 0 13 5 10 10 -3 6 -8 10 -10 10 -2
0 -7 -4 -10 -10z"/>
<path d="M1128 813 c7 -3 16 -2 19 1 4 3 -2 6 -13 5 -11 0 -14 -3 -6 -6z"/>
<path d="M1850 695 c0 -8 -4 -15 -10 -15 -5 0 -10 -7 -10 -15 0 -10 10 -15 30
-15 27 0 30 3 30 30 0 23 -4 30 -20 30 -11 0 -20 -7 -20 -15z"/>
</g>
</svg>
